<svg width="184" height="46" viewBox="0 0 184 46" fill="none" xmlns="http://www.w3.org/2000/svg">
<path d="M12.576 35V15.768H10.848C9.26933 15.768 8.064 16.1413 7.232 16.888C6.42133 17.6133 6.016 18.5627 6.016 19.736C6.016 21.08 6.304 22.1467 6.88 22.936C7.47733 23.704 8.36267 24.4827 9.536 25.272L11.488 26.584L5.856 35H1.664L6.72 27.48C5.26933 26.4347 4.14933 25.3467 3.36 24.216C2.57067 23.0853 2.176 21.6667 2.176 19.96C2.176 17.8267 2.912 16.0987 4.384 14.776C5.856 13.432 8 12.76 10.816 12.76H16.448V35H12.576ZM87.232 35.32C84.6933 35.32 82.7947 34.5947 81.536 33.144C80.2987 31.6933 79.68 29.6347 79.68 26.968C79.68 25.752 79.84 24.632 80.16 23.608C80.48 22.5627 80.9387 21.6773 81.536 20.952C82.1547 20.2053 82.9227 19.6293 83.84 19.224C84.7787 18.7973 85.856 18.584 87.072 18.584C88.0107 18.584 88.8213 18.6587 89.504 18.808C90.208 18.9573 90.7627 19.1387 91.168 19.352V22.584C90.784 22.3493 90.2507 22.1253 89.568 21.912C88.9067 21.6987 88.2133 21.592 87.488 21.592C86.2507 21.592 85.2907 22.04 84.608 22.936C83.9467 23.832 83.616 25.144 83.616 26.872C83.616 28.536 83.9147 29.8587 84.512 30.84C85.1307 31.8213 86.112 32.312 87.456 32.312C88.2453 32.312 88.9387 32.216 89.536 32.024C90.1547 31.832 90.6987 31.5653 91.168 31.224V34.328C90.6987 34.6693 90.144 34.9147 89.504 35.064C88.864 35.2347 88.1067 35.32 87.232 35.32ZM63.424 33.912C62.8693 34.296 62.144 34.6267 61.248 34.904C60.352 35.1813 59.296 35.32 58.08 35.32C55.6693 35.32 53.792 34.6373 52.448 33.272C51.1253 31.8853 50.464 29.7947 50.464 27C50.464 25.784 50.6027 24.664 50.88 23.64C51.1573 22.5947 51.5733 21.7093 52.128 20.984C52.704 20.2373 53.4187 19.6507 54.272 19.224C55.1467 18.7973 56.16 18.584 57.312 18.584C59.2107 18.584 60.7253 19.1707 61.856 20.344C63.008 21.5173 63.584 23.5013 63.584 26.296V28.312H54.4C54.4853 29.656 54.8267 30.6587 55.424 31.32C56.0213 31.9813 57.0133 32.312 58.4 32.312C59.3173 32.312 60.2347 32.1627 61.152 31.864C62.0693 31.5653 62.8267 31.2133 63.424 30.808V33.912ZM75.584 35L69.952 27.224V35H66.144V18.904H69.952V26.456L75.328 18.904H79.168L73.792 26.456L79.904 35H75.584ZM49.536 31.992V38.68H46.016V35H37.472V38.68H33.952V31.992H35.136C35.4773 31.3307 35.744 30.5307 35.936 29.592C36.1493 28.6533 36.3093 27.6613 36.416 26.616C36.544 25.5707 36.6293 24.504 36.672 23.416C36.7147 22.3067 36.736 21.2613 36.736 20.28V18.904H47.84V31.992H49.536ZM28.544 18.904H32.352V35H28.544V28.28H23.456V35H19.648V18.904H23.456V25.272H28.544V18.904ZM57.248 21.592C56.3307 21.592 55.6373 21.9227 55.168 22.584C54.6987 23.2453 54.4427 24.216 54.4 25.496H59.712V25.176C59.712 24.1733 59.5307 23.3307 59.168 22.648C58.8267 21.944 58.1867 21.592 57.248 21.592ZM44.032 31.992V21.912H40V22.392C40 23.0747 39.9787 23.8533 39.936 24.728C39.8933 25.5813 39.8187 26.4453 39.712 27.32C39.6267 28.1947 39.488 29.048 39.296 29.88C39.1253 30.6907 38.912 31.3947 38.656 31.992H44.032Z" fill="black"/>
<path d="M109.443 35H104.547L98.8513 12.76H102.883L107.203 30.392L111.619 12.76H115.171L109.443 35ZM116.453 15.768V12.76H130.885V15.768H125.605V35H121.733V15.768H116.453ZM133.752 24.952V35H129.944V18.904H133.656L133.752 22.104H133.848C134.296 21.0587 134.946 20.2267 135.8 19.608C136.653 18.968 137.624 18.616 138.712 18.552V22.136C137.56 22.072 136.578 22.2853 135.768 22.776C134.957 23.2453 134.285 23.9707 133.752 24.952ZM152.351 24.024V31.064C152.351 31.7253 152.361 32.3867 152.383 33.048C152.425 33.688 152.479 34.3387 152.543 35H148.831C148.767 34.8507 148.703 34.6587 148.639 34.424C148.596 34.168 148.564 33.9333 148.543 33.72H148.383C148.02 34.104 147.551 34.456 146.975 34.776C146.399 35.0747 145.556 35.224 144.447 35.224C142.975 35.224 141.78 34.7867 140.863 33.912C139.967 33.016 139.519 31.7573 139.519 30.136C139.519 28.5147 140.191 27.2453 141.535 26.328C142.9 25.4107 145.033 24.952 147.935 24.952H148.543V24.056C148.543 23.2027 148.329 22.5947 147.903 22.232C147.476 21.8693 146.804 21.688 145.887 21.688C144.905 21.688 143.913 21.8587 142.911 22.2C141.929 22.5413 141.183 22.904 140.671 23.288V20.12C141.247 19.7787 142.015 19.448 142.975 19.128C143.956 18.808 145.076 18.648 146.335 18.648C148.34 18.648 149.844 19.064 150.847 19.896C151.849 20.7067 152.351 22.0827 152.351 24.024ZM148.543 31.16V27.672H147.999C146.377 27.672 145.204 27.864 144.479 28.248C143.775 28.6107 143.423 29.2507 143.423 30.168C143.423 30.8507 143.625 31.4053 144.031 31.832C144.436 32.2373 145.033 32.44 145.823 32.44C146.484 32.44 147.039 32.312 147.487 32.056C147.956 31.8 148.308 31.5013 148.543 31.16ZM159.221 23.448V35H155.413V18.904H159.125L159.221 20.248H159.413C159.797 19.864 160.341 19.5013 161.045 19.16C161.749 18.8187 162.666 18.648 163.797 18.648C165.333 18.648 166.442 19.0213 167.125 19.768C167.829 20.4933 168.181 21.656 168.181 23.256V35H164.373V23.64C164.373 23.0427 164.213 22.5947 163.893 22.296C163.573 21.9973 163.082 21.848 162.421 21.848C161.738 21.848 161.119 22.008 160.565 22.328C160.01 22.648 159.562 23.0213 159.221 23.448ZM176.185 35.32C175.268 35.32 174.457 35.2347 173.753 35.064C173.07 34.9147 172.494 34.7547 172.025 34.584C171.577 34.392 171.236 34.2213 171.001 34.072C170.788 33.9013 170.681 33.816 170.681 33.816V30.712C170.766 30.7547 170.937 30.8613 171.193 31.032C171.449 31.2027 171.78 31.384 172.185 31.576C172.612 31.768 173.113 31.9387 173.689 32.088C174.265 32.2373 174.894 32.312 175.577 32.312C176.665 32.312 177.465 32.1627 177.977 31.864C178.489 31.544 178.745 31.0747 178.745 30.456C178.745 29.752 178.446 29.2293 177.849 28.888C177.273 28.5467 176.441 28.3013 175.353 28.152C173.796 27.9387 172.612 27.448 171.801 26.68C170.99 25.912 170.585 24.824 170.585 23.416C170.585 22.0293 171.108 20.8773 172.153 19.96C173.22 19.0427 174.724 18.584 176.665 18.584C178.244 18.584 179.417 18.7333 180.185 19.032C180.953 19.3307 181.337 19.48 181.337 19.48V22.584C181.209 22.4987 180.761 22.296 179.993 21.976C179.246 21.656 178.265 21.496 177.049 21.496C176.153 21.496 175.47 21.6453 175.001 21.944C174.532 22.2213 174.297 22.6587 174.297 23.256C174.297 24.024 174.585 24.5147 175.161 24.728C175.758 24.9413 176.452 25.1013 177.241 25.208C178.841 25.4213 180.1 25.912 181.017 26.68C181.956 27.448 182.425 28.536 182.425 29.944C182.425 31.8427 181.849 33.2187 180.697 34.072C179.566 34.904 178.062 35.32 176.185 35.32Z" fill="url(#paint0_linear_3398_7)"/>
<path d="M12.576 35V15.768H10.848C9.26933 15.768 8.064 16.1413 7.232 16.888C6.42133 17.6133 6.016 18.5627 6.016 19.736C6.016 21.08 6.304 22.1467 6.88 22.936C7.47733 23.704 8.36267 24.4827 9.536 25.272L11.488 26.584L5.856 35H1.664L6.72 27.48C5.26933 26.4347 4.14933 25.3467 3.36 24.216C2.57067 23.0853 2.176 21.6667 2.176 19.96C2.176 17.8267 2.912 16.0987 4.384 14.776C5.856 13.432 8 12.76 10.816 12.76H16.448V35H12.576ZM87.232 35.32C84.6933 35.32 82.7947 34.5947 81.536 33.144C80.2987 31.6933 79.68 29.6347 79.68 26.968C79.68 25.752 79.84 24.632 80.16 23.608C80.48 22.5627 80.9387 21.6773 81.536 20.952C82.1547 20.2053 82.9227 19.6293 83.84 19.224C84.7787 18.7973 85.856 18.584 87.072 18.584C88.0107 18.584 88.8213 18.6587 89.504 18.808C90.208 18.9573 90.7627 19.1387 91.168 19.352V22.584C90.784 22.3493 90.2507 22.1253 89.568 21.912C88.9067 21.6987 88.2133 21.592 87.488 21.592C86.2507 21.592 85.2907 22.04 84.608 22.936C83.9467 23.832 83.616 25.144 83.616 26.872C83.616 28.536 83.9147 29.8587 84.512 30.84C85.1307 31.8213 86.112 32.312 87.456 32.312C88.2453 32.312 88.9387 32.216 89.536 32.024C90.1547 31.832 90.6987 31.5653 91.168 31.224V34.328C90.6987 34.6693 90.144 34.9147 89.504 35.064C88.864 35.2347 88.1067 35.32 87.232 35.32ZM63.424 33.912C62.8693 34.296 62.144 34.6267 61.248 34.904C60.352 35.1813 59.296 35.32 58.08 35.32C55.6693 35.32 53.792 34.6373 52.448 33.272C51.1253 31.8853 50.464 29.7947 50.464 27C50.464 25.784 50.6027 24.664 50.88 23.64C51.1573 22.5947 51.5733 21.7093 52.128 20.984C52.704 20.2373 53.4187 19.6507 54.272 19.224C55.1467 18.7973 56.16 18.584 57.312 18.584C59.2107 18.584 60.7253 19.1707 61.856 20.344C63.008 21.5173 63.584 23.5013 63.584 26.296V28.312H54.4C54.4853 29.656 54.8267 30.6587 55.424 31.32C56.0213 31.9813 57.0133 32.312 58.4 32.312C59.3173 32.312 60.2347 32.1627 61.152 31.864C62.0693 31.5653 62.8267 31.2133 63.424 30.808V33.912ZM75.584 35L69.952 27.224V35H66.144V18.904H69.952V26.456L75.328 18.904H79.168L73.792 26.456L79.904 35H75.584ZM49.536 31.992V38.68H46.016V35H37.472V38.68H33.952V31.992H35.136C35.4773 31.3307 35.744 30.5307 35.936 29.592C36.1493 28.6533 36.3093 27.6613 36.416 26.616C36.544 25.5707 36.6293 24.504 36.672 23.416C36.7147 22.3067 36.736 21.2613 36.736 20.28V18.904H47.84V31.992H49.536ZM28.544 18.904H32.352V35H28.544V28.28H23.456V35H19.648V18.904H23.456V25.272H28.544V18.904ZM57.248 21.592C56.3307 21.592 55.6373 21.9227 55.168 22.584C54.6987 23.2453 54.4427 24.216 54.4 25.496H59.712V25.176C59.712 24.1733 59.5307 23.3307 59.168 22.648C58.8267 21.944 58.1867 21.592 57.248 21.592ZM44.032 31.992V21.912H40V22.392C40 23.0747 39.9787 23.8533 39.936 24.728C39.8933 25.5813 39.8187 26.4453 39.712 27.32C39.6267 28.1947 39.488 29.048 39.296 29.88C39.1253 30.6907 38.912 31.3947 38.656 31.992H44.032Z" fill="black"/>
<path d="M109.443 35H104.547L98.8513 12.76H102.883L107.203 30.392L111.619 12.76H115.171L109.443 35ZM116.453 15.768V12.76H130.885V15.768H125.605V35H121.733V15.768H116.453ZM133.752 24.952V35H129.944V18.904H133.656L133.752 22.104H133.848C134.296 21.0587 134.946 20.2267 135.8 19.608C136.653 18.968 137.624 18.616 138.712 18.552V22.136C137.56 22.072 136.578 22.2853 135.768 22.776C134.957 23.2453 134.285 23.9707 133.752 24.952ZM152.351 24.024V31.064C152.351 31.7253 152.361 32.3867 152.383 33.048C152.425 33.688 152.479 34.3387 152.543 35H148.831C148.767 34.8507 148.703 34.6587 148.639 34.424C148.596 34.168 148.564 33.9333 148.543 33.72H148.383C148.02 34.104 147.551 34.456 146.975 34.776C146.399 35.0747 145.556 35.224 144.447 35.224C142.975 35.224 141.78 34.7867 140.863 33.912C139.967 33.016 139.519 31.7573 139.519 30.136C139.519 28.5147 140.191 27.2453 141.535 26.328C142.9 25.4107 145.033 24.952 147.935 24.952H148.543V24.056C148.543 23.2027 148.329 22.5947 147.903 22.232C147.476 21.8693 146.804 21.688 145.887 21.688C144.905 21.688 143.913 21.8587 142.911 22.2C141.929 22.5413 141.183 22.904 140.671 23.288V20.12C141.247 19.7787 142.015 19.448 142.975 19.128C143.956 18.808 145.076 18.648 146.335 18.648C148.34 18.648 149.844 19.064 150.847 19.896C151.849 20.7067 152.351 22.0827 152.351 24.024ZM148.543 31.16V27.672H147.999C146.377 27.672 145.204 27.864 144.479 28.248C143.775 28.6107 143.423 29.2507 143.423 30.168C143.423 30.8507 143.625 31.4053 144.031 31.832C144.436 32.2373 145.033 32.44 145.823 32.44C146.484 32.44 147.039 32.312 147.487 32.056C147.956 31.8 148.308 31.5013 148.543 31.16ZM159.221 23.448V35H155.413V18.904H159.125L159.221 20.248H159.413C159.797 19.864 160.341 19.5013 161.045 19.16C161.749 18.8187 162.666 18.648 163.797 18.648C165.333 18.648 166.442 19.0213 167.125 19.768C167.829 20.4933 168.181 21.656 168.181 23.256V35H164.373V23.64C164.373 23.0427 164.213 22.5947 163.893 22.296C163.573 21.9973 163.082 21.848 162.421 21.848C161.738 21.848 161.119 22.008 160.565 22.328C160.01 22.648 159.562 23.0213 159.221 23.448ZM176.185 35.32C175.268 35.32 174.457 35.2347 173.753 35.064C173.07 34.9147 172.494 34.7547 172.025 34.584C171.577 34.392 171.236 34.2213 171.001 34.072C170.788 33.9013 170.681 33.816 170.681 33.816V30.712C170.766 30.7547 170.937 30.8613 171.193 31.032C171.449 31.2027 171.78 31.384 172.185 31.576C172.612 31.768 173.113 31.9387 173.689 32.088C174.265 32.2373 174.894 32.312 175.577 32.312C176.665 32.312 177.465 32.1627 177.977 31.864C178.489 31.544 178.745 31.0747 178.745 30.456C178.745 29.752 178.446 29.2293 177.849 28.888C177.273 28.5467 176.441 28.3013 175.353 28.152C173.796 27.9387 172.612 27.448 171.801 26.68C170.99 25.912 170.585 24.824 170.585 23.416C170.585 22.0293 171.108 20.8773 172.153 19.96C173.22 19.0427 174.724 18.584 176.665 18.584C178.244 18.584 179.417 18.7333 180.185 19.032C180.953 19.3307 181.337 19.48 181.337 19.48V22.584C181.209 22.4987 180.761 22.296 179.993 21.976C179.246 21.656 178.265 21.496 177.049 21.496C176.153 21.496 175.47 21.6453 175.001 21.944C174.532 22.2213 174.297 22.6587 174.297 23.256C174.297 24.024 174.585 24.5147 175.161 24.728C175.758 24.9413 176.452 25.1013 177.241 25.208C178.841 25.4213 180.1 25.912 181.017 26.68C181.956 27.448 182.425 28.536 182.425 29.944C182.425 31.8427 181.849 33.2187 180.697 34.072C179.566 34.904 178.062 35.32 176.185 35.32Z" fill="url(#paint1_linear_3398_7)"/>
<defs>
<linearGradient id="paint0_linear_3398_7" x1="137.5" y1="12.5" x2="137.5" y2="35" gradientUnits="userSpaceOnUse">
<stop stop-color="#7AA2FA"/>
<stop offset="0.2" stop-color="#7AA2FA"/>
<stop offset="0.2" stop-color="#FBB9EC"/>
<stop offset="0.4" stop-color="#FBB9EC"/>
<stop offset="0.4" stop-color="white"/>
<stop offset="0.6" stop-color="white"/>
<stop offset="0.6" stop-color="#FBB9EC"/>
<stop offset="0.8" stop-color="#FBB9EC"/>
<stop offset="0.8" stop-color="#7AA2FA"/>
<stop offset="1" stop-color="#7AA2FA"/>
</linearGradient>
<linearGradient id="paint1_linear_3398_7" x1="109.5" y1="23" x2="184" y2="23" gradientUnits="userSpaceOnUse">
<stop stop-color="#1A1645"/>
<stop offset="1" stop-color="#1A1645" stop-opacity="0"/>
</linearGradient>
</defs>
</svg>
